<?xml version="1.0" encoding="iso-8859-1"?>
<svg fill="#004999" width="800" height="800" viewBox="0 0 800 800" xmlns="http://www.w3.org/2000/svg">
<path d="M0 160V680H800L760 640H735.5H66.4844L258.672 495.177L291.875 470.156L291.953 470.078L258.75 445.078L258.672 445.156L40 609.844V237.344L291.875 424.5H511L760 237.344V609.844V640L800 680V160H0ZM66.4844 200H733.516L448 418.5H352L66.4844 200ZM398.672 228.5C343.68 228.5 298.672 273.508 298.672 328.5V388.5H258.672V495.177V588.5H538.672V495.177V445.078V388.5H498.672V328.5C498.672 273.508 453.663 228.5 398.672 228.5ZM398.672 268.5C432.046 268.5 458.672 295.126 458.672 328.5V388.5H338.672V328.5C338.672 295.126 365.298 268.5 398.672 268.5ZM298.672 428.5H498.672V548.5H298.672V428.5Z"/>
<path d="M735.5 640H760V609.844L538.672 445.078V495.177L735.5 640Z"/>
</svg>
